<svg xmlns="http://www.w3.org/2000/svg" viewBox="0 0 64 64">
  <rect width="64" height="64" rx="15" fill="#171714" />
  <path d="M18.8 18.6c0-3.3 2.6-6 5.9-6h24.7c-3.1.5-5.5 3.2-5.5 6.5v29.6c0 1.5-1.2 2.7-2.7 2.7H18.8V18.6Z" fill="#F5EAD3" />
  <path d="M15.1 45.8c0-3.2 2.6-5.8 5.8-5.8h4.4v11.4h-4.4c-3.2 0-5.8-2.5-5.8-5.6Z" fill="#A5AC8E" />
  <path d="M43.7 12.6h4.9c3.1 0 5.6 2.5 5.6 5.6s-2.5 5.6-5.6 5.6h-4.9V12.6Z" fill="#DED1B3" />
  <path d="M32 24.4c-4 8-7.8 13.3-7.8 17.5 0 3 2.6 5.4 5.9 5.6V53h3.8v-5.5c3.3-.2 5.9-2.6 5.9-5.6 0-4.2-3.8-9.5-7.8-17.5Z" fill="#171714" />
  <path d="M32 34.3l1.5 4.1 4.1 1.5-4.1 1.5-1.5 4.1-1.5-4.1-4.1-1.5 4.1-1.5 1.5-4.1Z" fill="#D7AA4F" />
</svg>
